<svg width="475" height="149" viewBox="0 0 475 149" fill="none" xmlns="http://www.w3.org/2000/svg">
<path d="M18.216 108.908V111.572H11.376V134H8.1V111.572H1.224V108.908H18.216ZM30.8526 134.324C29.0046 134.324 27.3246 133.904 25.8126 133.064C24.3246 132.224 23.1486 131.036 22.2846 129.5C21.4446 127.94 21.0246 126.14 21.0246 124.1C21.0246 122.084 21.4566 120.308 22.3206 118.772C23.2086 117.212 24.4086 116.024 25.9206 115.208C27.4326 114.368 29.1246 113.948 30.9966 113.948C32.8686 113.948 34.5606 114.368 36.0726 115.208C37.5846 116.024 38.7726 117.2 39.6366 118.736C40.5246 120.272 40.9686 122.06 40.9686 124.1C40.9686 126.14 40.5126 127.94 39.6006 129.5C38.7126 131.036 37.5006 132.224 35.9646 133.064C34.4286 133.904 32.7246 134.324 30.8526 134.324ZM30.8526 131.444C32.0286 131.444 33.1326 131.168 34.1646 130.616C35.1966 130.064 36.0246 129.236 36.6486 128.132C37.2966 127.028 37.6206 125.684 37.6206 124.1C37.6206 122.516 37.3086 121.172 36.6846 120.068C36.0606 118.964 35.2446 118.148 34.2366 117.62C33.2286 117.068 32.1366 116.792 30.9606 116.792C29.7606 116.792 28.6566 117.068 27.6486 117.62C26.6646 118.148 25.8726 118.964 25.2726 120.068C24.6726 121.172 24.3726 122.516 24.3726 124.1C24.3726 125.708 24.6606 127.064 25.2366 128.168C25.8366 129.272 26.6286 130.1 27.6126 130.652C28.5966 131.18 29.6766 131.444 30.8526 131.444ZM44.0519 124.064C44.0519 122.048 44.4599 120.284 45.2759 118.772C46.0919 117.236 47.2079 116.048 48.6239 115.208C50.0639 114.368 51.6719 113.948 53.4479 113.948C54.9839 113.948 56.4119 114.308 57.7319 115.028C59.0519 115.724 60.0599 116.648 60.7559 117.8V107.36H64.0679V134H60.7559V130.292C60.1079 131.468 59.1479 132.44 57.8759 133.208C56.6039 133.952 55.1159 134.324 53.4119 134.324C51.6599 134.324 50.0639 133.892 48.6239 133.028C47.2079 132.164 46.0919 130.952 45.2759 129.392C44.4599 127.832 44.0519 126.056 44.0519 124.064ZM60.7559 124.1C60.7559 122.612 60.4559 121.316 59.8559 120.212C59.2559 119.108 58.4399 118.268 57.4079 117.692C56.3999 117.092 55.2839 116.792 54.0599 116.792C52.8359 116.792 51.7199 117.08 50.7119 117.656C49.7039 118.232 48.8999 119.072 48.2999 120.176C47.6999 121.28 47.3999 122.576 47.3999 124.064C47.3999 125.576 47.6999 126.896 48.2999 128.024C48.8999 129.128 49.7039 129.98 50.7119 130.58C51.7199 131.156 52.8359 131.444 54.0599 131.444C55.2839 131.444 56.3999 131.156 57.4079 130.58C58.4399 129.98 59.2559 129.128 59.8559 128.024C60.4559 126.896 60.7559 125.588 60.7559 124.1ZM78.208 134.324C76.36 134.324 74.68 133.904 73.168 133.064C71.68 132.224 70.504 131.036 69.64 129.5C68.8 127.94 68.38 126.14 68.38 124.1C68.38 122.084 68.812 120.308 69.676 118.772C70.564 117.212 71.764 116.024 73.276 115.208C74.788 114.368 76.48 113.948 78.352 113.948C80.224 113.948 81.916 114.368 83.428 115.208C84.94 116.024 86.128 117.2 86.992 118.736C87.88 120.272 88.324 122.06 88.324 124.1C88.324 126.14 87.868 127.94 86.956 129.5C86.068 131.036 84.856 132.224 83.32 133.064C81.784 133.904 80.08 134.324 78.208 134.324ZM78.208 131.444C79.384 131.444 80.488 131.168 81.52 130.616C82.552 130.064 83.38 129.236 84.004 128.132C84.652 127.028 84.976 125.684 84.976 124.1C84.976 122.516 84.664 121.172 84.04 120.068C83.416 118.964 82.6 118.148 81.592 117.62C80.584 117.068 79.492 116.792 78.316 116.792C77.116 116.792 76.012 117.068 75.004 117.62C74.02 118.148 73.228 118.964 72.628 120.068C72.028 121.172 71.728 122.516 71.728 124.1C71.728 125.708 72.016 127.064 72.592 128.168C73.192 129.272 73.984 130.1 74.968 130.652C75.952 131.18 77.032 131.444 78.208 131.444ZM125.953 113.912C127.489 113.912 128.857 114.236 130.057 114.884C131.257 115.508 132.205 116.456 132.901 117.728C133.597 119 133.945 120.548 133.945 122.372V134H130.705V122.84C130.705 120.872 130.213 119.372 129.229 118.34C128.269 117.284 126.961 116.756 125.305 116.756C123.601 116.756 122.245 117.308 121.237 118.412C120.229 119.492 119.725 121.064 119.725 123.128V134H116.485V122.84C116.485 120.872 115.993 119.372 115.009 118.34C114.049 117.284 112.741 116.756 111.085 116.756C109.381 116.756 108.025 117.308 107.017 118.412C106.009 119.492 105.505 121.064 105.505 123.128V134H102.229V114.272H105.505V117.116C106.153 116.084 107.017 115.292 108.097 114.74C109.201 114.188 110.413 113.912 111.733 113.912C113.389 113.912 114.853 114.284 116.125 115.028C117.397 115.772 118.345 116.864 118.969 118.304C119.521 116.912 120.433 115.832 121.705 115.064C122.977 114.296 124.393 113.912 125.953 113.912ZM156.815 114.272V134H153.539V131.084C152.915 132.092 152.039 132.884 150.911 133.46C149.807 134.012 148.583 134.288 147.239 134.288C145.703 134.288 144.323 133.976 143.099 133.352C141.875 132.704 140.903 131.744 140.183 130.472C139.487 129.2 139.139 127.652 139.139 125.828V114.272H142.379V125.396C142.379 127.34 142.871 128.84 143.855 129.896C144.839 130.928 146.183 131.444 147.887 131.444C149.639 131.444 151.019 130.904 152.027 129.824C153.035 128.744 153.539 127.172 153.539 125.108V114.272H156.815ZM171.958 113.912C174.358 113.912 176.302 114.644 177.79 116.108C179.278 117.548 180.022 119.636 180.022 122.372V134H176.782V122.84C176.782 120.872 176.29 119.372 175.306 118.34C174.322 117.284 172.978 116.756 171.274 116.756C169.546 116.756 168.166 117.296 167.134 118.376C166.126 119.456 165.622 121.028 165.622 123.092V134H162.346V114.272H165.622V117.08C166.27 116.072 167.146 115.292 168.25 114.74C169.378 114.188 170.614 113.912 171.958 113.912ZM184.15 124.064C184.15 122.048 184.558 120.284 185.374 118.772C186.19 117.236 187.306 116.048 188.722 115.208C190.162 114.368 191.77 113.948 193.546 113.948C195.082 113.948 196.51 114.308 197.83 115.028C199.15 115.724 200.158 116.648 200.854 117.8V107.36H204.166V134H200.854V130.292C200.206 131.468 199.246 132.44 197.974 133.208C196.702 133.952 195.214 134.324 193.51 134.324C191.758 134.324 190.162 133.892 188.722 133.028C187.306 132.164 186.19 130.952 185.374 129.392C184.558 127.832 184.15 126.056 184.15 124.064ZM200.854 124.1C200.854 122.612 200.554 121.316 199.954 120.212C199.354 119.108 198.538 118.268 197.506 117.692C196.498 117.092 195.382 116.792 194.158 116.792C192.934 116.792 191.818 117.08 190.81 117.656C189.802 118.232 188.998 119.072 188.398 120.176C187.798 121.28 187.498 122.576 187.498 124.064C187.498 125.576 187.798 126.896 188.398 128.024C188.998 129.128 189.802 129.98 190.81 130.58C191.818 131.156 192.934 131.444 194.158 131.444C195.382 131.444 196.498 131.156 197.506 130.58C198.538 129.98 199.354 129.128 199.954 128.024C200.554 126.896 200.854 125.588 200.854 124.1ZM218.306 134.324C216.458 134.324 214.778 133.904 213.266 133.064C211.778 132.224 210.602 131.036 209.738 129.5C208.898 127.94 208.478 126.14 208.478 124.1C208.478 122.084 208.91 120.308 209.774 118.772C210.662 117.212 211.862 116.024 213.374 115.208C214.886 114.368 216.578 113.948 218.45 113.948C220.322 113.948 222.014 114.368 223.526 115.208C225.038 116.024 226.226 117.2 227.09 118.736C227.978 120.272 228.422 122.06 228.422 124.1C228.422 126.14 227.966 127.94 227.054 129.5C226.166 131.036 224.954 132.224 223.418 133.064C221.882 133.904 220.178 134.324 218.306 134.324ZM218.306 131.444C219.482 131.444 220.586 131.168 221.618 130.616C222.65 130.064 223.478 129.236 224.102 128.132C224.75 127.028 225.074 125.684 225.074 124.1C225.074 122.516 224.762 121.172 224.138 120.068C223.514 118.964 222.698 118.148 221.69 117.62C220.682 117.068 219.59 116.792 218.414 116.792C217.214 116.792 216.11 117.068 215.102 117.62C214.118 118.148 213.326 118.964 212.726 120.068C212.126 121.172 211.826 122.516 211.826 124.1C211.826 125.708 212.114 127.064 212.69 128.168C213.29 129.272 214.082 130.1 215.066 130.652C216.05 131.18 217.13 131.444 218.306 131.444ZM245.603 117.908C246.251 116.78 247.211 115.844 248.483 115.1C249.779 114.332 251.279 113.948 252.983 113.948C254.735 113.948 256.319 114.368 257.735 115.208C259.175 116.048 260.303 117.236 261.119 118.772C261.935 120.284 262.343 122.048 262.343 124.064C262.343 126.056 261.935 127.832 261.119 129.392C260.303 130.952 259.175 132.164 257.735 133.028C256.319 133.892 254.735 134.324 252.983 134.324C251.303 134.324 249.815 133.952 248.519 133.208C247.247 132.44 246.275 131.492 245.603 130.364V143.36H242.327V114.272H245.603V117.908ZM258.995 124.064C258.995 122.576 258.695 121.28 258.095 120.176C257.495 119.072 256.679 118.232 255.647 117.656C254.639 117.08 253.523 116.792 252.299 116.792C251.099 116.792 249.983 117.092 248.951 117.692C247.943 118.268 247.127 119.12 246.503 120.248C245.903 121.352 245.603 122.636 245.603 124.1C245.603 125.588 245.903 126.896 246.503 128.024C247.127 129.128 247.943 129.98 248.951 130.58C249.983 131.156 251.099 131.444 252.299 131.444C253.523 131.444 254.639 131.156 255.647 130.58C256.679 129.98 257.495 129.128 258.095 128.024C258.695 126.896 258.995 125.576 258.995 124.064ZM275.259 134.324C273.411 134.324 271.731 133.904 270.219 133.064C268.731 132.224 267.555 131.036 266.691 129.5C265.851 127.94 265.431 126.14 265.431 124.1C265.431 122.084 265.863 120.308 266.727 118.772C267.615 117.212 268.815 116.024 270.327 115.208C271.839 114.368 273.531 113.948 275.403 113.948C277.275 113.948 278.967 114.368 280.479 115.208C281.991 116.024 283.179 117.2 284.043 118.736C284.931 120.272 285.375 122.06 285.375 124.1C285.375 126.14 284.919 127.94 284.007 129.5C283.119 131.036 281.907 132.224 280.371 133.064C278.835 133.904 277.131 134.324 275.259 134.324ZM275.259 131.444C276.435 131.444 277.539 131.168 278.571 130.616C279.603 130.064 280.431 129.236 281.055 128.132C281.703 127.028 282.027 125.684 282.027 124.1C282.027 122.516 281.715 121.172 281.091 120.068C280.467 118.964 279.651 118.148 278.643 117.62C277.635 117.068 276.543 116.792 275.367 116.792C274.167 116.792 273.063 117.068 272.055 117.62C271.071 118.148 270.279 118.964 269.679 120.068C269.079 121.172 268.779 122.516 268.779 124.1C268.779 125.708 269.067 127.064 269.643 128.168C270.243 129.272 271.035 130.1 272.019 130.652C273.003 131.18 274.083 131.444 275.259 131.444ZM288.458 124.064C288.458 122.048 288.866 120.284 289.682 118.772C290.498 117.236 291.614 116.048 293.03 115.208C294.47 114.368 296.078 113.948 297.854 113.948C299.39 113.948 300.818 114.308 302.138 115.028C303.458 115.724 304.466 116.648 305.162 117.8V107.36H308.474V134H305.162V130.292C304.514 131.468 303.554 132.44 302.282 133.208C301.01 133.952 299.522 134.324 297.818 134.324C296.066 134.324 294.47 133.892 293.03 133.028C291.614 132.164 290.498 130.952 289.682 129.392C288.866 127.832 288.458 126.056 288.458 124.064ZM305.162 124.1C305.162 122.612 304.862 121.316 304.262 120.212C303.662 119.108 302.846 118.268 301.814 117.692C300.806 117.092 299.69 116.792 298.466 116.792C297.242 116.792 296.126 117.08 295.118 117.656C294.11 118.232 293.306 119.072 292.706 120.176C292.106 121.28 291.806 122.576 291.806 124.064C291.806 125.576 292.106 126.896 292.706 128.024C293.306 129.128 294.11 129.98 295.118 130.58C296.126 131.156 297.242 131.444 298.466 131.444C299.69 131.444 300.806 131.156 301.814 130.58C302.846 129.98 303.662 129.128 304.262 128.024C304.862 126.896 305.162 125.588 305.162 124.1ZM332.01 123.38C332.01 124.004 331.974 124.664 331.902 125.36H316.134C316.254 127.304 316.914 128.828 318.114 129.932C319.338 131.012 320.814 131.552 322.542 131.552C323.958 131.552 325.134 131.228 326.07 130.58C327.03 129.908 327.702 129.02 328.086 127.916H331.614C331.086 129.812 330.03 131.36 328.446 132.56C326.862 133.736 324.894 134.324 322.542 134.324C320.67 134.324 318.99 133.904 317.502 133.064C316.038 132.224 314.886 131.036 314.046 129.5C313.206 127.94 312.786 126.14 312.786 124.1C312.786 122.06 313.194 120.272 314.01 118.736C314.826 117.2 315.966 116.024 317.43 115.208C318.918 114.368 320.622 113.948 322.542 113.948C324.414 113.948 326.07 114.356 327.51 115.172C328.95 115.988 330.054 117.116 330.822 118.556C331.614 119.972 332.01 121.58 332.01 123.38ZM328.626 122.696C328.626 121.448 328.35 120.38 327.798 119.492C327.246 118.58 326.49 117.896 325.53 117.44C324.594 116.96 323.55 116.72 322.398 116.72C320.742 116.72 319.326 117.248 318.15 118.304C316.998 119.36 316.338 120.824 316.17 122.696H328.626ZM349.928 116.972V128.6C349.928 129.56 350.132 130.244 350.54 130.652C350.948 131.036 351.656 131.228 352.664 131.228H355.076V134H352.124C350.3 134 348.932 133.58 348.02 132.74C347.108 131.9 346.652 130.52 346.652 128.6V116.972H344.096V114.272H346.652V109.304H349.928V114.272H355.076V116.972H349.928ZM362.321 117.476C362.897 116.348 363.713 115.472 364.769 114.848C365.849 114.224 367.157 113.912 368.693 113.912V117.296H367.829C364.157 117.296 362.321 119.288 362.321 123.272V134H359.045V114.272H362.321V117.476ZM390.475 123.38C390.475 124.004 390.439 124.664 390.367 125.36H374.599C374.719 127.304 375.379 128.828 376.579 129.932C377.803 131.012 379.279 131.552 381.007 131.552C382.423 131.552 383.599 131.228 384.535 130.58C385.495 129.908 386.167 129.02 386.551 127.916H390.079C389.551 129.812 388.495 131.36 386.911 132.56C385.327 133.736 383.359 134.324 381.007 134.324C379.135 134.324 377.455 133.904 375.967 133.064C374.503 132.224 373.351 131.036 372.511 129.5C371.671 127.94 371.251 126.14 371.251 124.1C371.251 122.06 371.659 120.272 372.475 118.736C373.291 117.2 374.431 116.024 375.895 115.208C377.383 114.368 379.087 113.948 381.007 113.948C382.879 113.948 384.535 114.356 385.975 115.172C387.415 115.988 388.519 117.116 389.287 118.556C390.079 119.972 390.475 121.58 390.475 123.38ZM387.091 122.696C387.091 121.448 386.815 120.38 386.263 119.492C385.711 118.58 384.955 117.896 383.995 117.44C383.059 116.96 382.015 116.72 380.863 116.72C379.207 116.72 377.791 117.248 376.615 118.304C375.463 119.36 374.803 120.824 374.635 122.696H387.091ZM396.491 111.068C395.867 111.068 395.339 110.852 394.907 110.42C394.475 109.988 394.259 109.46 394.259 108.836C394.259 108.212 394.475 107.684 394.907 107.252C395.339 106.82 395.867 106.604 396.491 106.604C397.091 106.604 397.595 106.82 398.003 107.252C398.435 107.684 398.651 108.212 398.651 108.836C398.651 109.46 398.435 109.988 398.003 110.42C397.595 110.852 397.091 111.068 396.491 111.068ZM398.075 114.272V134H394.799V114.272H398.075ZM413.271 113.912C415.671 113.912 417.615 114.644 419.103 116.108C420.591 117.548 421.335 119.636 421.335 122.372V134H418.095V122.84C418.095 120.872 417.603 119.372 416.619 118.34C415.635 117.284 414.291 116.756 412.587 116.756C410.859 116.756 409.479 117.296 408.447 118.376C407.439 119.456 406.935 121.028 406.935 123.092V134H403.659V114.272H406.935V117.08C407.583 116.072 408.459 115.292 409.563 114.74C410.691 114.188 411.927 113.912 413.271 113.912ZM425.462 124.064C425.462 122.048 425.87 120.284 426.686 118.772C427.502 117.236 428.618 116.048 430.034 115.208C431.474 114.368 433.07 113.948 434.822 113.948C436.55 113.948 438.05 114.32 439.322 115.064C440.594 115.808 441.542 116.744 442.166 117.872V114.272H445.478V134H442.166V130.328C441.518 131.48 440.546 132.44 439.25 133.208C437.978 133.952 436.49 134.324 434.786 134.324C433.034 134.324 431.45 133.892 430.034 133.028C428.618 132.164 427.502 130.952 426.686 129.392C425.87 127.832 425.462 126.056 425.462 124.064ZM442.166 124.1C442.166 122.612 441.866 121.316 441.266 120.212C440.666 119.108 439.85 118.268 438.818 117.692C437.81 117.092 436.694 116.792 435.47 116.792C434.246 116.792 433.13 117.08 432.122 117.656C431.114 118.232 430.31 119.072 429.71 120.176C429.11 121.28 428.81 122.576 428.81 124.064C428.81 125.576 429.11 126.896 429.71 128.024C430.31 129.128 431.114 129.98 432.122 130.58C433.13 131.156 434.246 131.444 435.47 131.444C436.694 131.444 437.81 131.156 438.818 130.58C439.85 129.98 440.666 129.128 441.266 128.024C441.866 126.896 442.166 125.588 442.166 124.1ZM454.29 117.476C454.866 116.348 455.682 115.472 456.738 114.848C457.818 114.224 459.126 113.912 460.662 113.912V117.296H459.798C456.126 117.296 454.29 119.288 454.29 123.272V134H451.014V114.272H454.29V117.476Z" fill="#7B6F72"/>
<path d="M110.52 29.8C109.38 27.7 107.73 26.11 105.57 25.03C103.47 23.89 100.98 23.32 98.1 23.32C93.12 23.32 89.13 24.97 86.13 28.27C83.13 31.51 81.63 35.86 81.63 41.32C81.63 47.14 83.19 51.7 86.31 55C89.49 58.24 93.84 59.86 99.36 59.86C103.14 59.86 106.32 58.9 108.9 56.98C111.54 55.06 113.46 52.3 114.66 48.7H95.13V37.36H128.61V51.67C127.47 55.51 125.52 59.08 122.76 62.38C120.06 65.68 116.61 68.35 112.41 70.39C108.21 72.43 103.47 73.45 98.19 73.45C91.95 73.45 86.37 72.1 81.45 69.4C76.59 66.64 72.78 62.83 70.02 57.97C67.32 53.11 65.97 47.56 65.97 41.32C65.97 35.08 67.32 29.53 70.02 24.67C72.78 19.75 76.59 15.94 81.45 13.24C86.31 10.48 91.86 9.1 98.1 9.1C105.66 9.1 112.02 10.93 117.18 14.59C122.4 18.25 125.85 23.32 127.53 29.8H110.52ZM188.435 22.78L156.935 96.85H140.375L151.895 71.29L131.465 22.78H148.655L160.265 54.19L171.785 22.78H188.435ZM258.08 22.24C264.32 22.24 269.27 24.13 272.93 27.91C276.65 31.69 278.51 36.94 278.51 43.66V73H263.21V45.73C263.21 42.49 262.34 40 260.6 38.26C258.92 36.46 256.58 35.56 253.58 35.56C250.58 35.56 248.21 36.46 246.47 38.26C244.79 40 243.95 42.49 243.95 45.73V73H228.65V45.73C228.65 42.49 227.78 40 226.04 38.26C224.36 36.46 222.02 35.56 219.02 35.56C216.02 35.56 213.65 36.46 211.91 38.26C210.23 40 209.39 42.49 209.39 45.73V73H194V22.78H209.39V29.08C210.95 26.98 212.99 25.33 215.51 24.13C218.03 22.87 220.88 22.24 224.06 22.24C227.84 22.24 231.2 23.05 234.14 24.67C237.14 26.29 239.48 28.6 241.16 31.6C242.9 28.84 245.27 26.59 248.27 24.85C251.27 23.11 254.54 22.24 258.08 22.24ZM330.403 9.82V22.15H304.663V35.47H323.923V47.44H304.663V73H289.273V9.82H330.403ZM346.232 17.56C343.532 17.56 341.312 16.78 339.572 15.22C337.892 13.6 337.052 11.62 337.052 9.28C337.052 6.88 337.892 4.9 339.572 3.34C341.312 1.72 343.532 0.909995 346.232 0.909995C348.872 0.909995 351.032 1.72 352.712 3.34C354.452 4.9 355.322 6.88 355.322 9.28C355.322 11.62 354.452 13.6 352.712 15.22C351.032 16.78 348.872 17.56 346.232 17.56ZM353.882 22.78V73H338.492V22.78H353.882ZM393.025 59.95V73H385.195C379.615 73 375.265 71.65 372.145 68.95C369.025 66.19 367.465 61.72 367.465 55.54V35.56H361.345V22.78H367.465V10.54H382.855V22.78H392.935V35.56H382.855V55.72C382.855 57.22 383.215 58.3 383.935 58.96C384.655 59.62 385.855 59.95 387.535 59.95H393.025Z" fill="#FFD600"/>
</svg>
